<svg width="265" height="73" fill="none" xmlns="http://www.w3.org/2000/svg"><g filter="url('#filter0_d_1_333')"><path d="M4 20C4 8.954 12.954 0 24 0h217c11.046 0 20 8.954 20 20v25c0 11.046-8.954 20-20 20H24C12.954 65 4 56.046 4 45V20Z" fill="#fff"/><path d="M4.5 20C4.5 9.23 13.23.5 24 .5h217c10.77 0 19.5 8.73 19.5 19.5v25c0 10.77-8.73 19.5-19.5 19.5H24C13.23 64.5 4.5 55.77 4.5 45V20Z" stroke="#000"/></g><defs><filter id="filter0_d_1_333" x="0" y="0" width="265" height="73" filterUnits="userSpaceOnUse" color-interpolation-filters="sRGB"><feFlood flood-opacity="0" result="BackgroundImageFix"/><feColorMatrix in="SourceAlpha" values="0 0 0 0 0 0 0 0 0 0 0 0 0 0 0 0 0 0 127 0" result="hardAlpha"/><feOffset dy="4"/><feGaussianBlur stdDeviation="2"/><feComposite in2="hardAlpha" operator="out"/><feColorMatrix values="0 0 0 0 0 0 0 0 0 0 0 0 0 0 0 0 0 0 0.25 0"/><feBlend in2="BackgroundImageFix" result="effect1_dropShadow_1_333"/><feBlend in="SourceGraphic" in2="effect1_dropShadow_1_333" result="shape"/></filter></defs></svg>