<svg width="863" height="760" fill="none" xmlns="http://www.w3.org/2000/svg"><g filter="url('#filter0_d_1_334')"><path d="M4 45C4 20.147 24.147 0 49 0h765c24.853 0 45 20.147 45 45v662c0 24.853-20.147 45-45 45H49c-24.853 0-45-20.147-45-45V45Z" fill="#fff"/><path d="M4.5 45C4.5 20.423 24.423.5 49 .5h765c24.577 0 44.5 19.923 44.5 44.5v662c0 24.577-19.923 44.5-44.5 44.5H49c-24.577 0-44.5-19.923-44.5-44.5V45Z" stroke="#000"/></g><defs><filter id="filter0_d_1_334" x="0" y="0" width="863" height="760" filterUnits="userSpaceOnUse" color-interpolation-filters="sRGB"><feFlood flood-opacity="0" result="BackgroundImageFix"/><feColorMatrix in="SourceAlpha" values="0 0 0 0 0 0 0 0 0 0 0 0 0 0 0 0 0 0 127 0" result="hardAlpha"/><feOffset dy="4"/><feGaussianBlur stdDeviation="2"/><feComposite in2="hardAlpha" operator="out"/><feColorMatrix values="0 0 0 0 0 0 0 0 0 0 0 0 0 0 0 0 0 0 0.25 0"/><feBlend in2="BackgroundImageFix" result="effect1_dropShadow_1_334"/><feBlend in="SourceGraphic" in2="effect1_dropShadow_1_334" result="shape"/></filter></defs></svg>